<?xml version="1.0" standalone="no"?><svg xmlns="http://www.w3.org/2000/svg" viewBox="0 0 1440 320"><path fill="#7316F4" fill-opacity="1" d="M0,128L30,154.7C60,181,120,235,180,224C240,213,300,139,360,117.3C420,96,480,128,540,149.3C600,171,660,181,720,160C780,139,840,85,900,64C960,43,1020,53,1080,64C1140,75,1200,85,1260,80C1320,75,1380,53,1410,42.7L1440,32L1440,0L1410,0C1380,0,1320,0,1260,0C1200,0,1140,0,1080,0C1020,0,960,0,900,0C840,0,780,0,720,0C660,0,600,0,540,0C480,0,420,0,360,0C300,0,240,0,180,0C120,0,60,0,30,0L0,0Z"></path></svg>