<?xml version="1.0" standalone="no"?><svg xmlns="http://www.w3.org/2000/svg" viewBox="0 0 1440 320"><path fill="#5C09FA" fill-opacity="1" d="M0,128L0,256L68.6,256L68.6,128L137.1,128L137.1,224L205.7,224L205.7,96L274.3,96L274.3,160L342.9,160L342.9,192L411.4,192L411.4,32L480,32L480,128L548.6,128L548.6,96L617.1,96L617.1,160L685.7,160L685.7,128L754.3,128L754.3,256L822.9,256L822.9,256L891.4,256L891.4,64L960,64L960,160L1028.6,160L1028.6,96L1097.1,96L1097.1,192L1165.7,192L1165.7,224L1234.3,224L1234.3,96L1302.9,96L1302.9,0L1371.4,0L1371.4,160L1440,160L1440,320L1371.4,320L1371.4,320L1302.9,320L1302.9,320L1234.3,320L1234.3,320L1165.7,320L1165.7,320L1097.1,320L1097.1,320L1028.6,320L1028.6,320L960,320L960,320L891.4,320L891.4,320L822.9,320L822.9,320L754.3,320L754.3,320L685.7,320L685.7,320L617.1,320L617.1,320L548.6,320L548.6,320L480,320L480,320L411.4,320L411.4,320L342.9,320L342.9,320L274.3,320L274.3,320L205.7,320L205.7,320L137.1,320L137.1,320L68.6,320L68.6,320L0,320L0,320Z"></path></svg>