<?xml version="1.0" standalone="no"?><svg xmlns="http://www.w3.org/2000/svg" viewBox="0 0 1440 320"><path fill="#801DF0" fill-opacity="1" d="M0,128L30,154.7C60,181,120,235,180,224C240,213,300,139,360,117.3C420,96,480,128,540,149.3C600,171,660,181,720,160C780,139,840,85,900,64C960,43,1020,53,1080,64C1140,75,1200,85,1260,80C1320,75,1380,53,1410,42.7L1440,32L1440,320L1410,320C1380,320,1320,320,1260,320C1200,320,1140,320,1080,320C1020,320,960,320,900,320C840,320,780,320,720,320C660,320,600,320,540,320C480,320,420,320,360,320C300,320,240,320,180,320C120,320,60,320,30,320L0,320Z"></path></svg>