<?xml version="1.0" standalone="no"?><svg xmlns="http://www.w3.org/2000/svg" viewBox="0 0 1440 320"><path fill="#801DF0" fill-opacity="1" d="M0,64L30,106.7C60,149,120,235,180,234.7C240,235,300,149,360,128C420,107,480,149,540,176C600,203,660,213,720,186.7C780,160,840,96,900,101.3C960,107,1020,181,1080,208C1140,235,1200,213,1260,186.7C1320,160,1380,128,1410,112L1440,96L1440,0L1410,0C1380,0,1320,0,1260,0C1200,0,1140,0,1080,0C1020,0,960,0,900,0C840,0,780,0,720,0C660,0,600,0,540,0C480,0,420,0,360,0C300,0,240,0,180,0C120,0,60,0,30,0L0,0Z"></path></svg>