<?xml version="1.0" standalone="no"?><svg xmlns="http://www.w3.org/2000/svg" viewBox="0 0 1440 320"><path fill="#6A11F6" fill-opacity="1" d="M0,64L30,106.7C60,149,120,235,180,234.7C240,235,300,149,360,128C420,107,480,149,540,176C600,203,660,213,720,186.7C780,160,840,96,900,101.3C960,107,1020,181,1080,208C1140,235,1200,213,1260,186.7C1320,160,1380,128,1410,112L1440,96L1440,320L1410,320C1380,320,1320,320,1260,320C1200,320,1140,320,1080,320C1020,320,960,320,900,320C840,320,780,320,720,320C660,320,600,320,540,320C480,320,420,320,360,320C300,320,240,320,180,320C120,320,60,320,30,320L0,320Z"></path></svg>